# xmcd
#
# Track frame offsets:
#	150
#	30547
#	51345
#	79612
#	97160
#	118650
#	148927
#	165047
#	182555
#	213657
#	233785
#	261637
#	277962
#	308077
#
# Disc length: 4385 seconds
#
# Revision: 1
# Processed by: cddbd v1.5.1PL0 Copyright (c) Steve Scherf et al.
# Submitted via: CDex 1.50Beta5
#
DISCID=c5111f0e
DTITLE=北島三郎 - 風雪月花〜第二弾 風の巻〜
DYEAR=1996
DGENRE=World
TTITLE0=谷
TTITLE1=男道
TTITLE2=やん衆挽歌
TTITLE3=激唱
TTITLE4=三郎杉
TTITLE5=風の城下町
TTITLE6=青雲五人男
TTITLE7=風雪の唄
TTITLE8=城
TTITLE9=斧
TTITLE10=やん衆酒場
TTITLE11=風の峠
TTITLE12=宴
TTITLE13=川
EXTD=
EXTT0=
EXTT1=
EXTT2=
EXTT3=
EXTT4=
EXTT5=
EXTT6=
EXTT7=
EXTT8=
EXTT9=
EXTT10=
EXTT11=
EXTT12=
EXTT13=
PLAYORDER=
